# xmcd CD database file
#
# Track frame offsets:
#	150
#	15889
#	29828
#	41766
#	58366
#	72458
#	83279
#	93672
#	102038
#	107749
#	120999
#	131110
#	143285
#	157072
#	169598
#	175255
#	188213
#	203766
#
# Disc length: 2816 seconds
#
# Revision: 0
# Processed by: cddbd v1.4PL0 Copyright (c) Steve Scherf et al.
# Submitted via: CDex 1.50beta9
#
DISCID=f00afe12
DTITLE=Jazz and cinema vol.4 - Jazz in Paris
DYEAR=1900
DGENRE=Jazz
TTITLE0=Touchez pas au grisbi
TTITLE1=Grisbi blues
TTITLE2=Cora
TTITLE3=Patricia
TTITLE4=Belinda
TTITLE5=Amanda
TTITLE6=Generique
TTITLE7=Slow bleu bleu bleu
TTITLE8=Cha cha de Cullera
TTITLE9=Il se passe quelque chose
TTITLE10=Le ciel c'est toi
TTITLE11=No hay dinero caballo
TTITLE12=Va' ya pa'ti
TTITLE13=Les ennemis
TTITLE14=L'espionnage
TTITLE15=Sentimental slow
TTITLE16=Touchez pas au grisbi alternate
TTITLE17=Touchez pas au grisbi reprise
EXTD=
EXTT0=
EXTT1=
EXTT2=
EXTT3=
EXTT4=
EXTT5=
EXTT6=
EXTT7=
EXTT8=
EXTT9=
EXTT10=
EXTT11=
EXTT12=
EXTT13=
EXTT14=
EXTT15=
EXTT16=
EXTT17=
PLAYORDER=
